<?xml version="1.0"?>
<!--Icons from directory ""-->
<svg xmlns="http://www.w3.org/2000/svg" width="203" height="1350" viewBox="0 0 203 1350"><svg width="106" height="32" id="appstore" y="0"><g fill="none" fill-rule="evenodd"><rect width="105.958" height="32" fill="#000" rx="2.91"/><path fill="#FFF" d="M40.67 24.575h1.781L38.553 13.59H36.75l-3.9 10.985h1.721l.995-2.915h4.116l.988 2.915zm-3.105-8.99h.128l1.563 4.643h-3.262l1.571-4.644zm9.609.563c-1.108 0-2.066.563-2.56 1.507h-.12v-1.37h-1.548v10.978h1.609v-3.944h.127c.426.876 1.347 1.393 2.506 1.393 2.058 0 3.368-1.652 3.368-4.286 0-2.634-1.31-4.278-3.382-4.278zm-.457 7.095c-1.347 0-2.192-1.08-2.192-2.81 0-1.735.845-2.816 2.2-2.816 1.361 0 2.177 1.058 2.177 2.81 0 1.758-.816 2.816-2.185 2.816zm8.8-7.095c-1.107 0-2.065.563-2.559 1.507h-.12v-1.37H51.29v10.978h1.61v-3.944h.126c.427.876 1.347 1.393 2.507 1.393 2.058 0 3.367-1.652 3.367-4.286 0-2.634-1.31-4.278-3.382-4.278zm-.456 7.095c-1.347 0-2.193-1.08-2.193-2.81 0-1.735.846-2.816 2.2-2.816 1.362 0 2.178 1.058 2.178 2.81 0 1.758-.816 2.816-2.185 2.816zm7.244-1.621c.12 1.964 1.728 3.22 4.123 3.22 2.559 0 4.16-1.317 4.16-3.418 0-1.652-.913-2.566-3.128-3.091l-1.19-.297c-1.406-.335-1.975-.784-1.975-1.569 0-.99.883-1.636 2.208-1.636 1.257 0 2.125.632 2.282 1.644h1.631c-.097-1.85-1.699-3.152-3.89-3.152-2.358 0-3.93 1.302-3.93 3.259 0 1.614.891 2.573 2.844 3.037l1.392.343c1.43.342 2.058.845 2.058 1.682 0 .975-.988 1.683-2.335 1.683-1.444 0-2.447-.662-2.589-1.705h-1.661zm9.668-7.347v2.048h-1.34V17.7h1.34v4.682c0 1.599.71 2.238 2.5 2.238.313 0 .605-.038.86-.084v-1.362c-.225.022-.352.038-.599.038-.8 0-1.152-.381-1.152-1.249V17.7h1.825v-1.378h-1.825v-2.048h-1.61zm7.423 9.006c-1.4 0-2.185-1.043-2.185-2.855 0-1.796.786-2.847 2.185-2.847 1.392 0 2.185 1.05 2.185 2.847 0 1.805-.793 2.855-2.185 2.855zm0 1.454c2.38 0 3.839-1.621 3.839-4.309 0-2.672-1.467-4.301-3.839-4.301-2.38 0-3.846 1.63-3.846 4.301 0 2.688 1.46 4.31 3.846 4.31zm4.573-.16h1.608V19.68c0-1.165.86-1.949 2.073-1.949.27 0 .763.054.89.1v-1.615a3.355 3.355 0 00-.71-.068c-1.063 0-1.96.594-2.193 1.408h-.12v-1.271H83.97v8.29zm8.194-7.057c1.19 0 1.967.845 2.005 2.147h-4.116c.09-1.294.92-2.147 2.11-2.147zm1.997 4.82c-.299.646-.965 1.004-1.938 1.004-1.287 0-2.117-.921-2.17-2.375v-.092h5.755v-.57c0-2.604-1.37-4.18-3.637-4.18-2.297 0-3.756 1.682-3.756 4.332s1.429 4.278 3.764 4.278c1.863 0 3.165-.913 3.531-2.398H94.16zM34.359 5.015v5.23h1.856c1.532 0 2.42-.96 2.42-2.631 0-1.646-.895-2.6-2.42-2.6H34.36zm.798.74h.97c1.065 0 1.695.688 1.695 1.87 0 1.2-.62 1.881-1.696 1.881h-.969V5.754zm6.286 3.875c-.666 0-1.04-.497-1.04-1.36 0-.855.374-1.356 1.04-1.356.663 0 1.04.5 1.04 1.356 0 .86-.377 1.36-1.04 1.36zm0 .692c1.133 0 1.828-.772 1.828-2.052 0-1.272-.698-2.048-1.828-2.048-1.133 0-1.831.776-1.831 2.048 0 1.28.695 2.052 1.831 2.052zm7.833-4.024h-.766l-.692 3.013h-.06l-.798-3.013h-.734l-.798 3.013h-.057l-.695-3.013h-.777l1.069 3.948h.787l.798-2.908h.061l.802 2.908h.794l1.066-3.948zm.973 3.948h.766v-2.31c0-.616.378-1 .994-1 .57 0 .848.315.848.95v2.36h.767V7.69c0-.939-.489-1.468-1.354-1.468-.585 0-1.037.265-1.226.703h-.057v-.627h-.738v3.948zm4.669 0h.766V4.757h-.766v5.489zm3.735-.616c-.667 0-1.04-.497-1.04-1.36 0-.855.373-1.356 1.04-1.356.662 0 1.04.5 1.04 1.356 0 .86-.378 1.36-1.04 1.36zm0 .692c1.133 0 1.828-.772 1.828-2.052 0-1.272-.699-2.048-1.828-2.048-1.133 0-1.832.776-1.832 2.048 0 1.28.695 2.052 1.832 2.052zm4.198-.667c-.417 0-.72-.207-.72-.562 0-.348.242-.533.777-.57l.948-.06v.33c0 .489-.428.862-1.005.862zm-.196.656c.51 0 .933-.225 1.165-.62h.06v.555h.738V7.549c0-.834-.549-1.327-1.521-1.327-.88 0-1.508.435-1.586 1.113h.741c.086-.28.381-.439.809-.439.524 0 .795.236.795.653v.34l-1.052.062c-.922.058-1.443.468-1.443 1.178 0 .722.546 1.182 1.294 1.182zm4.654 0c.534 0 .987-.257 1.219-.689h.06v.624h.734V4.757h-.766v2.168H68.5c-.21-.435-.66-.692-1.19-.692-.98 0-1.61.79-1.61 2.037 0 1.25.623 2.041 1.61 2.041zm.217-3.379c.642 0 1.044.519 1.044 1.342 0 .826-.399 1.338-1.044 1.338-.648 0-1.037-.504-1.037-1.342 0-.83.392-1.338 1.037-1.338zM74.47 9.63c-.666 0-1.04-.497-1.04-1.36 0-.855.374-1.356 1.04-1.356.663 0 1.04.5 1.04 1.356 0 .86-.377 1.36-1.04 1.36zm0 .692c1.133 0 1.828-.772 1.828-2.052 0-1.272-.699-2.048-1.828-2.048-1.133 0-1.832.776-1.832 2.048 0 1.28.695 2.052 1.832 2.052zm2.93-.076h.766v-2.31c0-.616.377-1 .994-1 .57 0 .848.315.848.95v2.36h.766V7.69c0-.939-.488-1.468-1.354-1.468-.585 0-1.037.265-1.226.703h-.057v-.627h-.738v3.948zm7.08-4.906v.975h-.638v.656h.638v2.23c0 .761.338 1.066 1.19 1.066.15 0 .289-.018.41-.04v-.65c-.107.012-.168.019-.285.019-.381 0-.549-.181-.549-.595v-2.03h.87v-.656h-.87V5.34h-.766zm2.726 4.905h.767V7.94c0-.598.388-1 1.015-1 .577 0 .866.319.866.95v2.356h.766V7.697c0-.939-.499-1.472-1.372-1.472-.584 0-1.033.265-1.222.707h-.06V4.757h-.76v5.489zm6.269-3.36c.566 0 .937.402.955 1.022h-1.96c.043-.617.438-1.023 1.005-1.023zm.951 2.294c-.142.308-.46.479-.923.479-.613 0-1.008-.439-1.033-1.131v-.044h2.74v-.272c0-1.24-.652-1.99-1.732-1.99-1.093 0-1.788.801-1.788 2.063 0 1.261.68 2.037 1.792 2.037.887 0 1.507-.435 1.682-1.142h-.738zM23.596 16.152c-.024-2.655 2.137-3.947 2.236-4.007-1.224-1.815-3.12-2.063-3.787-2.083-1.593-.17-3.138.97-3.95.97-.827 0-2.076-.954-3.423-.926-1.733.028-3.354 1.048-4.243 2.633-1.835 3.233-.467 7.982 1.291 10.595.88 1.28 1.907 2.708 3.252 2.658 1.316-.054 1.808-.854 3.396-.854 1.573 0 2.035.854 3.407.82 1.412-.02 2.301-1.284 3.15-2.575 1.016-1.465 1.424-2.911 1.44-2.985-.032-.011-2.742-1.063-2.77-4.246m-2.59-7.808c.707-.901 1.192-2.127 1.057-3.37-1.024.046-2.305.721-3.043 1.602-.653.776-1.236 2.048-1.085 3.244 1.15.088 2.332-.59 3.07-1.477"/></g></svg><svg xmlns:xlink="http://www.w3.org/1999/xlink" width="18" height="18" id="call__icon" y="32"><defs><path id="call__icon-a" d="M6.745 9.023l2.179 2.254c.68.703 1.787.703 2.468 0l1.033-1.069 3.103 3.21a.62.62 0 010 .855l-.76.785c-.699.723-1.746 1.017-2.951.826-1.258-.198-2.516-.893-3.543-1.956L4.182 9.696C3.155 8.633 2.484 7.331 2.292 6.03c-.184-1.247.099-2.33.797-3.053l.761-.787a.568.568 0 01.826 0L7.778 5.4 6.745 6.47c-.68.704-.68 1.85 0 2.553m9.445 3.711l-3.434-3.552a.459.459 0 00-.33-.142h-.001a.458.458 0 00-.33.142l-1.364 1.411a.81.81 0 01-1.146 0L7.406 8.34a.846.846 0 01-.237-.592c0-.224.084-.435.237-.593L8.77 5.743a.488.488 0 00.137-.342.49.49 0 00-.137-.343L5.336 1.506a1.516 1.516 0 00-2.147 0l-.76.787c-.915.946-1.292 2.325-1.062 3.883.222 1.503.987 2.996 2.154 4.204l4.092 4.232c1.167 1.208 2.61 1.999 4.063 2.229.285.045.57.067.844.067 1.167 0 2.173-.403 2.91-1.165l.76-.787a1.59 1.59 0 00.445-1.111c0-.42-.158-.814-.445-1.11"/></defs><g fill="none" fill-rule="evenodd"><mask id="call__icon-b" fill="#fff"><use xlink:href="#call__icon-a"/></mask><use fill="#434A54" xlink:href="#call__icon-a"/><g fill="#313131" mask="url(#call__icon-b)"><path d="M0 0h18v18H0z"/></g></g></svg><svg width="26" height="27" id="cart__rm-icon" y="50"><g fill="none" fill-rule="evenodd" stroke="#313131" stroke-linecap="round" stroke-linejoin="round" stroke-width=".591"><path d="M21.236 8.073l-1.887 5.277a1.687 1.687 0 01-1.597 1.1H7.239l-.053.008-1.043-6.38.033-.005h15.061z"/><path fill="#E2EAF0" d="M18.226 22.043a1.496 1.496 0 11-2.991 0 1.496 1.496 0 012.991 0h0zm-6.731 0a1.496 1.496 0 11-2.991 0 1.496 1.496 0 012.99 0h0z"/><path d="M2.889 5.333h1.664a1.3 1.3 0 011.286 1.104l1.65 10.792a1.3 1.3 0 001.282 1.104h10.403"/></g></svg><svg xmlns:xlink="http://www.w3.org/1999/xlink" width="18" height="18" id="chat-bot" y="77"><defs><path id="chat-bot-a" d="M8.084.02a7.801 7.801 0 00-6.852 11.53l-.003-.002C2.383 13.833.013 15.816.013 15.816s2.815.167 4.912-.86c0-.99.728-1.634 1.855-1.901v-1.033h-.388a2.992 2.992 0 01-2.94-2.487c-.363-.164-.6-.5-.6-1.16 0-.736.299-1.07.742-1.212a2.993 2.993 0 012.798-1.956h.674c.169-.201.43-.334.83-.365V3.71a.563.563 0 11.377 0v1.13c.397.032.658.165.827.366h.677c1.28 0 2.377.816 2.798 1.954.443.139.742.472.742 1.214 0 .654-.236.991-.6 1.157a2.992 2.992 0 01-2.94 2.49H9.39v1.032c1.133.265 1.855.91 1.855 1.902A7.803 7.803 0 008.084.02"/><path id="chat-bot-c" d="M5.36 2.246a.52.52 0 110-1.04.52.52 0 010 1.04zm-1.03.496c-.007.18-.096.745-.753.745-.658 0-.746-.565-.754-.745l-.001-.029h1.51l-.001.03zm-2.537-.496a.52.52 0 11-.001-1.04.52.52 0 010 1.04zM5.269.062H1.884A1.83 1.83 0 00.055 1.89v.622c0 1.01.82 1.83 1.83 1.83h3.384c1.009 0 1.83-.82 1.83-1.83V1.89c0-1.009-.821-1.83-1.83-1.83z"/></defs><g fill="none" fill-rule="evenodd"><g transform="translate(1 1)"><mask id="chat-bot-b" fill="#fff"><use xlink:href="#chat-bot-a"/></mask><path fill="#313131" d="M8.084.02a7.801 7.801 0 00-6.852 11.53l-.003-.002C2.383 13.833.013 15.816.013 15.816s2.815.167 4.912-.86c0-.99.728-1.634 1.855-1.901v-1.033h-.388a2.992 2.992 0 01-2.94-2.487c-.363-.164-.6-.5-.6-1.16 0-.736.299-1.07.742-1.212a2.993 2.993 0 012.798-1.956h.674c.169-.201.43-.334.83-.365V3.71a.563.563 0 11.377 0v1.13c.397.032.658.165.827.366h.677c1.28 0 2.377.816 2.798 1.954.443.139.742.472.742 1.214 0 .654-.236.991-.6 1.157a2.992 2.992 0 01-2.94 2.49H9.39v1.032c1.133.265 1.855.91 1.855 1.902A7.803 7.803 0 008.084.02" mask="url(#chat-bot-b)"/></g><g transform="translate(5.508 7.413)"><mask id="chat-bot-d" fill="#fff"><use xlink:href="#chat-bot-c"/></mask><path fill="#313131" d="M5.36 2.246a.52.52 0 110-1.04.52.52 0 010 1.04zm-1.03.496c-.007.18-.096.745-.753.745-.658 0-.746-.565-.754-.745l-.001-.029h1.51l-.001.03zm-2.537-.496a.52.52 0 11-.001-1.04.52.52 0 010 1.04zM5.269.062H1.884A1.83 1.83 0 00.055 1.89v.622c0 1.01.82 1.83 1.83 1.83h3.384c1.009 0 1.83-.82 1.83-1.83V1.89c0-1.009-.821-1.83-1.83-1.83z" mask="url(#chat-bot-d)"/></g></g></svg><svg xmlns:xlink="http://www.w3.org/1999/xlink" width="12" height="12" id="down__chevron-icon" y="95"><defs><path id="down__chevron-icon-a" d="M7.352 2.454L2.744-2.185a.2.2 0 00-.282.004.204.204 0 000 .28l4.465 4.496-4.465 4.497a.2.2 0 00-.004.284.196.196 0 00.282.004l.004-.004 4.608-4.638a.202.202 0 000-.284z"/></defs><g fill="none" fill-rule="evenodd" transform="translate(.611 3.836)"><mask id="down__chevron-icon-b" fill="#fff"><use xlink:href="#down__chevron-icon-a"/></mask><g fill="#313131" mask="url(#down__chevron-icon-b)"><path d="M-2.2-4.4h14.08V9.68H-2.2z"/></g></g></svg><svg xmlns:xlink="http://www.w3.org/1999/xlink" width="20" height="20" id="heart" y="107"><defs><path id="heart-a" d="M17.883 5.023c-.035-.988-.38-1.995-.926-2.692-.398-.508-.777-.959-1.4-1.32-2.078-1.203-4.395-1.02-6.094.485A4.338 4.338 0 009 1.974a4.388 4.388 0 00-.462-.478C6.838-.01 4.524-.192 2.444 1.011c-.625.363-.989.794-1.401 1.32-.545.697-.891 1.704-.926 2.693-.029.84.047 1.584.231 2.278.23.868.654 1.71 1.26 2.502.632.828 1.398 1.458 2.144 2.07.272.225.554.456.818.69a44.752 44.752 0 002.23 1.793c.505.385.882.662 1.148.845.62.447.78.517.893.552.05.015.1.023.171.024.05-.001.1-.01.153-.024.11-.035.268-.105.885-.548.27-.187.647-.464 1.153-.849a44.21 44.21 0 002.228-1.793c.264-.234.546-.465.822-.692.742-.61 1.508-1.239 2.141-2.068.605-.791 1.029-1.633 1.259-2.502.184-.694.26-1.44.231-2.279"/></defs><use fill="#FFF" fill-rule="evenodd" stroke="#787878" stroke-width="1.5" transform="translate(1 2)" xlink:href="#heart-a"/></svg><svg width="60" height="60" viewBox="0 0 18 18" id="icon-cancel__anytime" y="127"><g fill="none" fill-rule="evenodd"><path fill="#4DDFD2" d="M5.18 11.479h7.118V9.955H5.181z"/><path stroke="#434A54" stroke-linecap="round" stroke-linejoin="round" stroke-width=".5" d="M5.18 11.479h7.118V9.955H5.18z"/><path stroke="#434A54" stroke-linecap="round" stroke-linejoin="round" stroke-width=".5" d="M11.435 11.478v3.346h-.854l-.496-3.346m-4.176 0v3.346h.854l.497-3.346m2.848-7.405H7.371c-1.17 0-2.085.988-1.963 2.124l.517 3.758h5.629l.517-3.758c.121-1.136-.792-2.124-1.963-2.124z"/><path fill="#4DDFD2" d="M14.134 6.47a2.643 2.643 0 01-3.671 0 2.486 2.486 0 010-3.58 2.645 2.645 0 013.671 0 2.488 2.488 0 010 3.58"/><path stroke="#434A54" stroke-linecap="round" stroke-linejoin="round" stroke-width=".5" d="M14.134 6.47a2.643 2.643 0 01-3.671 0 2.486 2.486 0 010-3.58 2.645 2.645 0 013.671 0 2.488 2.488 0 010 3.58zM13.133 5.572l-1.528-1.527m1.508.019l-1.489 1.49"/></g></svg><svg width="60" height="60" viewBox="0 0 18 18" id="icon-easy__return" y="187"><g fill="none" fill-rule="evenodd"><path stroke="#434A54" stroke-linecap="round" stroke-linejoin="round" stroke-width=".4" d="M12.786 4.861H4.807c-.802 0-1.452.66-1.452 1.475v1.903h10.883V6.336c0-.815-.65-1.475-1.452-1.475z"/><path fill="#4DDFD2" d="M8.905 9.999v-.967c0-.843-.672-1.525-1.501-1.525H4.616c-.829 0-1.501.682-1.501 1.525v.967"/><path stroke="#434A54" stroke-linecap="round" stroke-linejoin="round" stroke-width=".4" d="M8.905 9.999v-.967c0-.843-.672-1.525-1.501-1.525H4.616c-.829 0-1.501.682-1.501 1.525v.967"/><path fill="#4DDFD2" d="M14.707 9.999v-.967c0-.843-.672-1.525-1.502-1.525H10.42c-.83 0-1.502.682-1.502 1.525v.967"/><path stroke="#434A54" stroke-linecap="round" stroke-linejoin="round" stroke-width=".4" d="M14.707 9.999v-.967c0-.843-.672-1.525-1.502-1.525H10.42c-.83 0-1.502.682-1.502 1.525v.967m5.777 3.907H2.898a.699.699 0 01-.693-.704v-3.167h13.183v3.167c0 .389-.31.704-.693.704zm.693-6.669c1.152-.464 1.788-1.77 1.43-3.028"/><path stroke="#434A54" stroke-linecap="round" stroke-linejoin="round" stroke-width=".4" d="M16.087 4.776l.732-.568.904.571"/></g></svg><svg xmlns:xlink="http://www.w3.org/1999/xlink" width="60" height="60" viewBox="0 0 18 18" id="icon-finest__quality" y="247"><defs><path id="icon-finest__quality-a" d="M.433.154h1.84v1.791H.433z"/><path id="icon-finest__quality-c" d="M.388.158h2.749v2.677H.387z"/></defs><g fill="none" fill-rule="evenodd"><path stroke="#434A54" stroke-linecap="round" stroke-linejoin="round" stroke-width=".5" d="M13.185 7.04H4.54c-.868 0-1.573.684-1.573 1.53v1.974h11.79V8.57c0-.845-.705-1.53-1.573-1.53z"/><path fill="#4DDFD2" d="M8.98 12.37v-1.003c0-.874-.728-1.582-1.626-1.582h-3.02c-.898 0-1.626.708-1.626 1.582v1.004"/><path stroke="#434A54" stroke-linecap="round" stroke-linejoin="round" stroke-width=".5" d="M8.98 12.37v-1.003c0-.874-.728-1.582-1.626-1.582h-3.02c-.898 0-1.626.708-1.626 1.582v1.004"/><path fill="#4DDFD2" d="M15.266 12.37v-1.003c0-.874-.729-1.582-1.627-1.582h-3.02c-.898 0-1.626.708-1.626 1.582v1.004"/><path stroke="#434A54" stroke-linecap="round" stroke-linejoin="round" stroke-width=".5" d="M15.266 12.37v-1.003c0-.874-.729-1.582-1.627-1.582h-3.02c-.898 0-1.626.708-1.626 1.582v1.004m6.26 4.055H2.473a.74.74 0 01-.75-.73v-3.288h14.28v3.288a.74.74 0 01-.75.73z"/><g transform="translate(14.833 3.67)"><mask id="icon-finest__quality-b" fill="#fff"><use xlink:href="#icon-finest__quality-a"/></mask><path fill="#434A54" d="M2.272 1.048a.003.003 0 010 .005 1.27 1.27 0 01-.458.242.308.308 0 00-.208.202v.002a1.202 1.202 0 01-.25.445.004.004 0 01-.006 0A1.223 1.223 0 011.1 1.5a.31.31 0 00-.209-.202 1.255 1.255 0 01-.457-.244.003.003 0 010-.005A1.2 1.2 0 01.891.804h.003A.31.31 0 001.1.601c.05-.149.118-.299.25-.446.001-.002.004-.002.004-.002.134.15.202.3.25.447l.002.002c.03.096.107.172.206.202h.002c.152.048.306.115.458.243" mask="url(#icon-finest__quality-b)"/></g><g transform="translate(10.833 1.075)"><mask id="icon-finest__quality-d" fill="#fff"><use xlink:href="#icon-finest__quality-c"/></mask><path fill="#434A54" d="M3.135 1.493a.006.006 0 010 .008 1.911 1.911 0 01-.685.363.461.461 0 00-.309.3v.004a1.814 1.814 0 01-.375.665.006.006 0 01-.008 0 1.827 1.827 0 01-.375-.665.466.466 0 00-.31-.303H1.07a1.889 1.889 0 01-.683-.364v-.008c.227-.192.455-.293.683-.364l.003-.002a.458.458 0 00.31-.3V.826A1.84 1.84 0 011.757.16a.006.006 0 01.008 0c.197.221.3.444.372.666l.001.003a.46.46 0 00.31.3l.002.001c.228.071.458.172.685.363" mask="url(#icon-finest__quality-d)"/></g></g></svg><svg width="60" height="60" viewBox="0 0 18 18" id="icon-free__maintenance" y="307"><g fill="none" fill-rule="evenodd"><path fill="#FFF" d="M1.703 9.612h3.734l3.37 1.872h6.463c1.226 0 1.47 1.946.289 2.28l-6.561 1.86a1.07 1.07 0 01-.72-.047l-5.183-2.563H1.703V9.612z"/><path stroke="#434A54" stroke-linecap="round" stroke-linejoin="round" stroke-width=".5" d="M1.703 9.612h3.734l3.37 1.872h6.463c1.226 0 1.47 1.946.289 2.28l-6.561 1.86a1.07 1.07 0 01-.72-.047l-5.183-2.563H1.703V9.612z"/><path stroke="#434A54" stroke-linecap="round" stroke-linejoin="round" stroke-width=".5" d="M7.64 13.092c1.052.076 2.106.156 3.16.228.67.046 1.143-.37 1.2-.887.043-.391-.348-.864-.854-.952"/><path fill="#4DDFD2" d="M14.627 6.366a3.585 3.585 0 000-1.12l-.835-.297a2.59 2.59 0 00-.195-.469l.38-.794a3.566 3.566 0 00-.797-.794l-.798.38a2.65 2.65 0 00-.47-.196l-.298-.831a3.717 3.717 0 00-1.124 0l-.297.831a2.63 2.63 0 00-.471.195l-.8-.38c-.305.222-.575.49-.796.795l.38.794a2.66 2.66 0 00-.195.469l-.835.296a3.66 3.66 0 000 1.121l.835.294c.05.164.115.32.195.47l-.38.795c.221.305.49.571.796.794l.8-.38c.15.078.306.145.47.196l.298.831a3.7 3.7 0 001.124 0l.298-.83c.163-.052.32-.12.47-.197l.798.38c.307-.223.575-.489.797-.794l-.38-.794c.078-.15.146-.307.195-.47l.835-.295z"/><path stroke="#434A54" stroke-linecap="round" stroke-linejoin="round" stroke-width=".5" d="M14.627 6.366a3.585 3.585 0 000-1.12l-.835-.297a2.59 2.59 0 00-.195-.469l.38-.794a3.566 3.566 0 00-.797-.794l-.798.38a2.65 2.65 0 00-.47-.196l-.298-.831a3.717 3.717 0 00-1.124 0l-.297.831a2.63 2.63 0 00-.471.195l-.8-.38c-.305.222-.575.49-.796.795l.38.794a2.66 2.66 0 00-.195.469l-.835.296a3.66 3.66 0 000 1.121l.835.294c.05.164.115.32.195.47l-.38.795c.221.305.49.571.796.794l.8-.38c.15.078.306.145.47.196l.298.831a3.7 3.7 0 001.124 0l.298-.83c.163-.052.32-.12.47-.197l.798.38c.307-.223.575-.489.797-.794l-.38-.794c.078-.15.146-.307.195-.47l.835-.295z"/><path fill="#FFF" d="M12.414 5.806c0-.75-.61-1.357-1.362-1.357a1.36 1.36 0 00-1.363 1.357c0 .75.61 1.355 1.363 1.355.752 0 1.362-.606 1.362-1.355"/><path stroke="#434A54" stroke-linecap="round" stroke-linejoin="round" stroke-width=".5" d="M12.414 5.806c0-.75-.61-1.357-1.362-1.357a1.36 1.36 0 00-1.363 1.357c0 .75.61 1.355 1.363 1.355.752 0 1.362-.606 1.362-1.355z"/></g></svg><svg width="60" height="60" viewBox="0 0 18 18" id="icon-free__relocation" y="367"><g fill="none" fill-rule="evenodd"><path stroke="#434A54" stroke-linecap="round" stroke-linejoin="round" stroke-width=".423" d="M15.368 11.723l-4.262 4.262-4.109-4.11m.001-.001a5.705 5.705 0 118.364-.158"/><path fill="#4DDFD2" d="M14.595 7.844a3.488 3.488 0 11-6.977-.001 3.488 3.488 0 016.977 0"/><path stroke="#434A54" stroke-linecap="round" stroke-linejoin="round" stroke-width=".423" d="M14.595 7.844a3.488 3.488 0 11-6.977-.001 3.488 3.488 0 016.977 0zm-5.017 0c0-.844.685-1.528 1.528-1.528"/><path stroke="#434A54" stroke-dasharray="1.058" stroke-linecap="round" stroke-linejoin="round" stroke-width=".423" d="M11.01 15.985H4.924L2.31 14.513"/><path fill="#4DDFD2" d="M2.31 11.841a.55.55 0 11-1.098 0 .55.55 0 011.098 0"/><path stroke="#434A54" stroke-linecap="round" stroke-linejoin="round" stroke-width=".423" d="M2.31 11.841a.55.55 0 11-1.098 0 .55.55 0 011.098 0z"/><path fill="#D2D2D2" d="M1.762 14.176V12.39"/><path stroke="#434A54" stroke-linecap="round" stroke-linejoin="round" stroke-width=".423" d="M1.762 14.176V12.39"/></g></svg><svg width="60" height="60" viewBox="0 0 18 18" id="icon-keep__upgrading" y="427"><g fill="none" fill-rule="evenodd"><path fill="#4DDFD2" d="M8.481 12.185H3.758a.566.566 0 01-.565-.569v-1.265c0-.315.253-.569.565-.569H8.48c.312 0 .565.254.565.569v1.265a.566.566 0 01-.565.569"/><path stroke="#434A54" stroke-linecap="round" stroke-linejoin="round" stroke-width=".4" d="M8.488 12.185H3.764a.566.566 0 01-.564-.569v-1.265c0-.315.253-.569.564-.569h4.724c.311 0 .564.254.564.569v1.265a.566.566 0 01-.564.569zm1.678-8.918c.967-.94 2.5-.928 3.417-.023.86.847.963 2.263.2 3.268"/><path stroke="#434A54" stroke-linecap="round" stroke-linejoin="round" stroke-width=".4" d="M13.334 5.727l.45.785 1.005-.18m-6.587 5.853H4.037a.847.847 0 01-.843-.85v-9.29c0-.47.377-.85.843-.85h4.165c.466 0 .843.38.843.85v9.29c0 .469-.377.85-.843.85z"/><path fill="#434A54" d="M6.541 11.04a.423.423 0 01-.422.425.423.423 0 01-.422-.425c0-.235.19-.425.422-.425.233 0 .422.19.422.425"/><path stroke="#434A54" stroke-linecap="round" stroke-linejoin="round" stroke-width=".4" d="M3.194 9.782h5.851M3.194 2.173h5.851"/><path fill="#FFF" d="M11.55 16.975H7.385a.847.847 0 01-.844-.851V6.836c0-.47.378-.85.844-.85h4.165c.466 0 .843.38.843.85v9.288c0 .47-.377.85-.843.85"/><path stroke="#434A54" stroke-linecap="round" stroke-linejoin="round" stroke-width=".4" d="M11.55 16.975H7.385a.847.847 0 01-.844-.851V6.836c0-.47.378-.85.844-.85h4.165c.466 0 .843.38.843.85v9.288c0 .47-.377.85-.843.85z"/><path fill="#4DDFD2" stroke="#434A54" stroke-width=".3" d="M9.822 15.903a.356.356 0 01-.355.358.356.356 0 01-.354-.358c0-.197.158-.357.354-.357.196 0 .355.16.355.357"/><path stroke="#434A54" stroke-linecap="round" stroke-linejoin="bevel" stroke-width=".5" d="M8.665 6.187h1.808"/></g></svg><svg width="12" height="12" id="left-o-arrow" y="487"><g fill="none" fill-rule="evenodd"><circle cx="6" cy="6" r="6" fill="#313131"/><path stroke="#FFF" stroke-linecap="round" stroke-linejoin="round" stroke-width=".667" d="M4.619 2.728L7.891 6 4.619 9.272"/></g></svg><svg width="180" height="33" data-name="Layer 1" id="logo" y="499"><path fill="#db3327" d="M43.3 1.2H12.4a3.6 3.6 0 00-3.6 3.6V26l-4 6.9h35a3.6 3.6 0 003.6-3.6V8l4-6.8zM21.4 13.6c-1.3.1-2.5 1.2-2.5 3.8v6.2h-3.4V10.4h.5a2.6 2.6 0 012.8 2 3.8 3.8 0 013.8-2.1h1l-1.9 3.3zM36.6 17v6.8h-.5c-1.9 0-3-1-3-3.4v-3.8c0-1.9-.9-3.1-2.6-3.1s-2.7 1.1-2.7 3.8v6.3h-3.5v-7c0-1.5-.5-2.6-1.7-3l1.9-3.2a4.6 4.6 0 012.7 2.2 5.3 5.3 0 014.6-2.3c3.4 0 4.8 2.5 4.8 5.8z"/><path fill="#6d6d6d" d="M148.3 11.5a6.4 6.4 0 016.7 6.6 6.7 6.7 0 01-13.4 0 6.4 6.4 0 016.7-6.6zm0 10.1a3.4 3.4 0 003.5-3.5 3.5 3.5 0 10-6.9 0 3.4 3.4 0 003.4 3.5zm11.6 1.6a6.1 6.1 0 01-3.4 5.8l-2-2.2a3.8 3.8 0 002.1-3.5V11.9h3.3zm-1.7-16.5c1.2 0 1.9.4 1.9 1.6s-.7 1.7-1.9 1.7-1.9-.5-1.9-1.7.8-1.6 1.9-1.6zm10.3 4.8a6.4 6.4 0 016.7 6.6 6.7 6.7 0 01-13.4 0 6.4 6.4 0 016.7-6.6zm0 10.1a3.4 3.4 0 003.5-3.5 3.5 3.5 0 10-6.9 0 3.4 3.4 0 003.4 3.5zm-88 1.4a8.3 8.3 0 01-5.2 1.7c-4.7 0-6.8-2.9-6.8-6.5a6.3 6.3 0 016.6-6.6c3.8 0 5.6 2.3 5.6 5.2a11.5 11.5 0 01-.3 2.4h-8.5a3.1 3.1 0 003.4 2.7 6.8 6.8 0 003.1-.8.9.9 0 011.2.4zm-3.1-6.8c0-1-.8-1.9-2.4-1.9a2.8 2.8 0 00-3 2.3h5.4a2.6 2.6 0 00.1-.4zm23.1-7.5v3.2h5.4a11.7 11.7 0 00-1.6 2.6h-3.8v5.1c0 1.5.6 2.4 1.7 2.4a4.6 4.6 0 002.3-.6 5.3 5.3 0 001.2 2.1 8.7 8.7 0 01-4.6 1.1c-2.4 0-4-1.5-4-4.4v-5.7h-2a11.3 11.3 0 00-1.2-2.6h3.2l.4-3.2zm-6.6 11.8v-3.3c0-3.1-1.4-5.5-4.6-5.5a5.2 5.2 0 00-4 1.7v-1.5H82v12.4h3.3v-5.7c0-2.4 1.4-3.9 2.8-3.9s2.5 1.1 2.5 3v3.6c0 2.3 1 3.3 2.9 3.3h.5z"/><path fill="#6d6d6d" d="M111.9 11.5a6.4 6.4 0 016.7 6.6 6.7 6.7 0 01-13.4 0 6.4 6.4 0 016.7-6.6zm0 10.1a3.4 3.4 0 003.5-3.5 3.5 3.5 0 10-6.9 0 3.4 3.4 0 003.4 3.5zm-42.6-9.1a4.2 4.2 0 00-2.4-.9 3.2 3.2 0 00-3.1 1.9 2.5 2.5 0 00-2.8-1.8h-.5v12.6h3.3v-6c0-2.6 1.3-3.6 2.7-3.6h1.1a9.1 9.1 0 011.7-2.2zm66.2-.8a5 5 0 00-4.4 2.2c-.6-1.5-2.4-2.2-4.5-2.2h-.2a4 4 0 00-3.5 1.9 2.5 2.5 0 00-2.7-1.9h-.5v12.6h3.3v-6c0-2.6 1.3-3.6 2.7-3.6s2.5 1.1 2.5 2.9v6.6h3.3v-6c0-2.5 1.2-3.6 2.6-3.6s2.5 1.1 2.5 3v3.6c0 2.3 1 3.3 2.9 3.3h.5v-7.3c.1-3.1-1.2-5.5-4.5-5.5z"/></svg><svg xmlns:xlink="http://www.w3.org/1999/xlink" width="18" height="18" id="mail" y="532"><defs><path id="mail-a" d="M1.18 9.394c.02.334.238.615.555.711l5.86 1.796.216 4.094a.405.405 0 00.402.38.394.394 0 00.3-.136l2.072-2.324 2.937 2.06c.13.092.284.142.444.142a.79.79 0 00.767-.635L17.17 2.893a.408.408 0 00-.137-.39.392.392 0 00-.405-.063L1.649 8.617a.8.8 0 00-.47.777zm7.375 5.585l-.134-2.582 1.502 1.051-1.368 1.531zm5.398.315l-5.346-3.75 7.497-7.348-2.151 11.098zM15.28 3.872l-7.41 7.265-5.855-1.792 13.266-5.473z"/></defs><g fill="none" fill-rule="evenodd"><mask id="mail-b" fill="#fff"><use xlink:href="#mail-a"/></mask><use fill="#787878" fill-rule="nonzero" xlink:href="#mail-a"/><g fill="#313131" mask="url(#mail-b)"><path d="M0 0h18v18H0z"/></g></g></svg><svg width="64" height="64" viewBox="0 0 18 18" id="new-appliances" y="550"><g fill="none" fill-rule="evenodd"><path stroke="#434A54" stroke-linecap="round" stroke-linejoin="round" stroke-width=".4" d="M12.646 14.124h-7.25a.172.172 0 01-.176-.168V4.393c0-.093.079-.168.176-.168h7.25c.097 0 .176.075.176.168v9.563a.172.172 0 01-.176.168zM5.22 5.79h7.601"/><path fill="#4DDFD2" d="M10.303 9.914c0 .678-.574 1.227-1.282 1.227-.709 0-1.283-.549-1.283-1.227s.574-1.227 1.283-1.227c.708 0 1.282.55 1.282 1.227"/><path stroke="#434A54" stroke-linecap="round" stroke-linejoin="round" stroke-width=".4" d="M10.303 9.914c0 .678-.574 1.227-1.282 1.227-.709 0-1.283-.549-1.283-1.227s.574-1.227 1.283-1.227c.708 0 1.282.55 1.282 1.227z"/><path fill="#434A54" d="M6.43 14.638h-.362a.178.178 0 01-.182-.174v-.109c0-.095.082-.173.182-.173h.363c.1 0 .181.078.181.173v.11a.178.178 0 01-.181.173m5.623.044h-.333a.193.193 0 01-.197-.188v-.124c0-.104.088-.188.197-.188h.333c.108 0 .196.084.196.188v.124a.193.193 0 01-.196.188"/></g></svg><svg width="64" height="64" viewBox="0 0 18 18" id="new-electronics" y="614"><g fill="none" fill-rule="evenodd" stroke="#434A54" stroke-width=".4"><path stroke-linecap="round" stroke-linejoin="round" d="M11.092 14.193H6.958c-.462 0-.837-.362-.837-.808V4.563c0-.447.375-.808.837-.808h4.134c.462 0 .837.361.837.808v8.822c0 .446-.375.808-.837.808z"/><path fill="#4DDFD2" d="M9.377 12.84c0 .187-.157.34-.352.34a.346.346 0 01-.352-.34c0-.188.157-.34.352-.34.195 0 .352.152.352.34"/><path stroke-linecap="round" stroke-linejoin="bevel" d="M8.228 3.946h1.795"/></g></svg><svg width="64" height="64" id="new-fitness" y="678"><g fill="none" fill-rule="evenodd" stroke="#434A54" stroke-linecap="round" stroke-linejoin="round" stroke-width="1.544" transform="translate(13.534 14.324)"><path d="M28.648 7.162l-1.79 14.324M6.088 9.694l2.865 8.211"/><path fill="#FFF" d="M34.271 24.313a5.388 5.388 0 013.582 5.077c0 2.974-2.873 5.385-5.848 5.385l-23.918-.07C3.528 34.14 0 30.254 0 25.543c0-5.124 4.159-9.233 9.232-9.233 2.55 0 3.022.652 14.878 4.544l10.161 3.46zM26.59 8.154a1.537 1.537 0 01.03-3.076h4.616v-3.54a1.54 1.54 0 013.078 0v3.54c0 1.7-1.378 3.077-3.078 3.077H26.59z"/><circle cx="28.648" cy="28.648" r="1.791" fill="#FFF"/><path fill="#4DDFD2" d="M12.108 5.557a2.083 2.083 0 01-.342 4.137H2.823a2.823 2.823 0 01-.006-5.646c.419 0 .062-.016 9.291 1.51z"/><circle cx="9.098" cy="25.604" r="4.476" fill="#4DDFD2"/><path d="M8.953 25.067l5.73 5.372h7.161"/></g></svg><svg width="64" height="64" viewBox="0 0 18 18" id="new-furniture" y="742"><g fill="none" fill-rule="evenodd"><path stroke="#434A54" stroke-linecap="round" stroke-linejoin="round" stroke-width=".4" d="M12.348 5.191H5.433c-.695 0-1.259.548-1.259 1.225v1.58h9.432v-1.58c0-.677-.563-1.225-1.258-1.225z"/><path fill="#4DDFD2" d="M8.984 9.456v-.802c0-.7-.582-1.266-1.3-1.266H5.266c-.718 0-1.3.566-1.3 1.266v.802"/><path stroke="#434A54" stroke-linecap="round" stroke-linejoin="round" stroke-width=".4" d="M8.984 9.456v-.802c0-.7-.582-1.266-1.3-1.266H5.266c-.718 0-1.3.566-1.3 1.266v.802"/><path fill="#4DDFD2" d="M14.013 9.456v-.802c0-.7-.583-1.266-1.302-1.266h-2.415c-.719 0-1.302.566-1.302 1.266v.802"/><path stroke="#434A54" stroke-linecap="round" stroke-linejoin="round" stroke-width=".4" d="M14.013 9.456v-.802c0-.7-.583-1.266-1.302-1.266h-2.415c-.719 0-1.302.566-1.302 1.266v.802m5.008 3.244H3.778a.593.593 0 01-.6-.584v-2.63h11.425v2.63a.592.592 0 01-.6.585z"/></g></svg><svg width="64" height="64" viewBox="0 0 18 18" id="new-packages" y="806"><g fill="none" fill-rule="evenodd" stroke="#434A54" stroke-width=".4"><path stroke-linecap="round" stroke-linejoin="round" d="M4 6.114L8.991 3.5l4.992 2.614v.345L8.99 9.073 4 6.467z"/><path stroke-linecap="round" stroke-linejoin="round" d="M4 6.45l4.991 2.638 4.992-2.639v5.432l-5.007 2.614L4 11.88z"/><path stroke-linecap="round" stroke-linejoin="round" d="M8.991 14.315V9.088L4.031 6.51 4 6.662v5.219z"/><path fill="#4DDFD2" d="M5.75 5.22l5.137 2.862 1.02-.54-5.289-2.793z"/><path fill="#4DDFD2" d="M10.75 8.153l1.05-.567-.036 1.684-.408-.056-.606.444V8.153z"/></g></svg><svg width="24" height="24" id="newsearch" y="870"><path fill="#313131" fill-rule="evenodd" d="M4.982 11.028a5.769 5.769 0 015.761-5.762 5.771 5.771 0 015.762 5.762 5.768 5.768 0 01-5.762 5.758 5.766 5.766 0 01-5.761-5.758zm11.322 4.557a7.191 7.191 0 00-5.56-11.747 7.19 7.19 0 100 14.38c1.73 0 3.314-.61 4.553-1.627L19.4 20.69a.71.71 0 101.006-1.003l-4.101-4.1z"/></svg><svg width="64" height="64" viewBox="0 0 18 18" id="offer" y="894"><g fill="none" fill-rule="evenodd"><path stroke="#434A54" stroke-linecap="round" stroke-linejoin="round" stroke-width=".4" d="M11.278 6.08c.523 4.882.875 7.323 1.055 7.323l-7.009-.023c-.788 0-1.401-.672-1.316-1.442l.65-5.858h6.62z"/><path fill="#434A54" fill-rule="nonzero" d="M9.984 7.134a.176.176 0 01-.173-.18v-1.85c0-.462-.183-.898-.517-1.227a1.79 1.79 0 00-1.267-.517c-.984 0-1.785.783-1.785 1.744v1.85a.176.176 0 01-.172.18.176.176 0 01-.173-.18v-1.85c0-1.159.956-2.101 2.13-2.101a2.128 2.128 0 011.505.615c.402.397.624.925.624 1.486v1.85a.176.176 0 01-.172.18z"/><path fill="#4DDFD2" stroke="#434A54" stroke-linecap="round" stroke-linejoin="round" stroke-width=".4" d="M13.917 12.817l-.077-.107a.344.344 0 01-.003-.395l.075-.108a.342.342 0 00-.115-.494l-.114-.062a.34.34 0 01-.17-.354l.022-.131a.336.336 0 00-.313-.394l-.13-.005a.333.333 0 01-.304-.243l-.037-.128a.329.329 0 00-.449-.216l-.12.052a.325.325 0 01-.376-.085l-.087-.099a.326.326 0 00-.496.004l-.085.1a.327.327 0 01-.376.09l-.121-.05a.33.33 0 00-.446.223l-.034.129a.33.33 0 01-.3.248l-.13.007a.336.336 0 00-.307.399l.024.13a.34.34 0 01-.164.357l-.114.065a.341.341 0 00-.106.494l.077.108a.344.344 0 01.003.394l-.075.109a.342.342 0 00.115.493l.114.063a.34.34 0 01.17.354l-.022.13c-.033.2.114.386.313.394l.13.005a.333.333 0 01.304.244l.037.127a.329.329 0 00.449.216l.12-.052a.325.325 0 01.376.085l.087.1c.133.15.365.15.496-.005l.085-.1a.327.327 0 01.376-.09l.121.05a.33.33 0 00.446-.223l.034-.128a.33.33 0 01.3-.248l.13-.008a.336.336 0 00.307-.398l-.024-.131a.34.34 0 01.164-.356l.114-.065a.341.341 0 00.106-.495z"/><path fill="#434A54" d="M10.24 12.103c0-.24.187-.434.417-.434.23 0 .417.194.417.434s-.187.433-.417.433a.425.425 0 01-.417-.433zm2.084 1.3a.425.425 0 01-.417-.434c0-.24.186-.433.417-.433.23 0 .416.194.416.433 0 .24-.186.434-.416.434z"/><path stroke="#434A54" stroke-linecap="round" stroke-linejoin="round" stroke-width=".3" d="M10.788 13.403l1.405-1.734"/></g></svg><svg xmlns:xlink="http://www.w3.org/1999/xlink" width="110" height="32" id="playstore" y="958"><defs><linearGradient id="playstore-b" x1="50%" x2="50%" y1="0%" y2="38.913%"><stop offset="0%" stop-color="#FBDA09"/><stop offset="100%" stop-color="#FFBC00"/></linearGradient><linearGradient id="playstore-c" x1="37.084%" x2="54.987%" y1="58.476%" y2="39.083%"><stop offset="0%" stop-color="#01E2FF"/><stop offset="100%" stop-color="#01C4FF"/></linearGradient><linearGradient id="playstore-e" x1="20.281%" x2="83.82%" y1="33.02%" y2="69.095%"><stop offset="0%" stop-color="#28D781"/><stop offset="100%" stop-color="#02F076"/></linearGradient><linearGradient id="playstore-f" x1="74.488%" x2="10.108%" y1="35.665%" y2="68.126%"><stop offset="0%" stop-color="#F2414E"/><stop offset="100%" stop-color="#E02554"/></linearGradient><path id="playstore-a" d="M8.206 1.913c.648-1.115 1.699-1.115 2.347 0L19.57 17.43c.648 1.116.138 2.02-1.152 2.02H.341c-1.285 0-1.8-.904-1.153-2.02L8.206 1.913z"/></defs><g fill="none" fill-rule="evenodd"><rect width="110" height="31.942" fill="#000" rx="3.699"/><g fill="#FFF"><path d="M58.292 5.382c1.47 0 2.663 1.172 2.663 2.618s-1.193 2.618-2.663 2.618c-1.471 0-2.664-1.172-2.664-2.618s1.194-2.618 2.664-2.618zm0 .8c-1.022 0-1.85.814-1.85 1.818s.828 1.818 1.85 1.818c1.02 0 1.849-.814 1.849-1.818s-.829-1.818-1.85-1.818zM42.387 5.6v.582h-2.146v1.527h1.924v.582h-1.923v1.6h2.146v.582h-2.96V5.6h2.959zm4.143 0v.582h-1.258v4.29h-.814v-4.29h-1.257V5.6h3.329zm7.249 0v.582h-1.257v4.29h-.813v-4.29h-1.258V5.6h3.33zm-4.882 0h1v4.873h-1zm13.536 1.07l.001 3.803h-.814V5.6h.962L64.8 9.164l.001-3.564h.814v4.873h-.814L62.433 6.67zM36.379 7.795h2.228l-.022.685h-2.206z"/><path d="M36.346 5.455c.754 0 1.389.259 1.822.708l-.51.501c-.316-.319-.768-.494-1.289-.494-1.043 0-1.887.83-1.887 1.852 0 1.023.844 1.852 1.886 1.852 1.042 0 1.781-.591 1.78-1.852.001-.078 0-.154-.006-.228h.65l.001.026c.236 1.703-.894 2.709-2.29 2.767l-.157.002c-1.444-.002-2.614-1.15-2.614-2.567 0-1.417 1.17-2.567 2.614-2.567z"/></g><g fill="#FFF"><path d="M84.086 14.328s2.414.404 2.414 3.13c0 2.725-2.414 3.129-2.414 3.129h-4.194v-6.259h4.194zm-.534 1.514h-2.846v3.359h2.853c.095-.003 1.29-.067 1.29-1.68 0-1.679-1.296-1.679-1.296-1.679z"/><path d="M79.522 14.328h1.479V24.51h-1.479zM87.363 14.328h1.479V24.51h-1.479zm5.432 3.418c2.49 0 2.98 1.634 3.01 2.272v4.488h-1.479v-.725c-.407.33-1.058.642-2.088.705-2.357.145-2.358-1.97-2.358-2.112v-.022c-.006-.242-.05-1.855 1.759-2.12 1.327-.194 2.257.13 2.687.335v-.299c-.105-.396-.432-1.125-1.413-1.125-1.347 0-1.644.717-1.644.717l-1.233-.717s.69-1.397 2.76-1.397zm-1.523 4.674c-.099 1.574 2.735.818 2.988-.298 0-.355-.038-.521-.038-.521s-2.85-.756-2.95.819zm6.152-4.456l1.897 4.432 1.884-4.397h1.48l-4.004 9.347h-1.48l1.38-3.223-2.637-6.159h1.48zm-24.343-.218c2.48 0 3.129 2.598 3.129 2.598l-4.68 1.901s.303 1.052 1.71 1.059c1.101.005 1.723-.96 1.723-.96l1.187.79s-.958 1.524-2.92 1.524c-2.41 0-3.473-2.073-3.473-3.42 0-1.296.843-3.492 3.324-3.492zm-.143 1.341c-1.91.344-1.67 1.987-1.67 1.987l3.162-1.269s-.59-.88-1.492-.718zm-5.4-4.759h1.565v10.16h-1.565zm-4.442 3.419c1.308-.036 1.937.854 1.937.854v-.634l1.447.012v6.41c0 1.639-.992 3.368-3.327 3.368s-3.09-2.034-3.09-2.034l1.33-.55s.405 1.254 1.83 1.254c1.621 0 1.81-1.45 1.81-1.948v-.695s-.56.863-1.955.863c-1.511 0-3.307-1.273-3.307-3.443s1.691-3.412 3.325-3.457zm.106 1.353c-1.055 0-1.91.95-1.91 2.122s.855 2.123 1.91 2.123 1.91-.95 1.91-2.123c0-1.172-.855-2.122-1.91-2.122zm-7.603-1.354c1.945 0 3.522 1.546 3.522 3.454 0 1.908-1.577 3.455-3.522 3.455-1.945 0-3.521-1.547-3.521-3.455 0-1.908 1.576-3.454 3.521-3.454zm-.023 1.355c-1.093 0-1.98.94-1.98 2.1 0 1.16.887 2.1 1.98 2.1 1.094 0 1.98-.94 1.98-2.1 0-1.16-.886-2.1-1.98-2.1zm-7.596-1.355c1.945 0 3.522 1.546 3.522 3.454 0 1.908-1.577 3.455-3.522 3.455-1.945 0-3.522-1.547-3.522-3.455 0-1.908 1.577-3.454 3.522-3.454zm-.023 1.355c-1.093 0-1.98.94-1.98 2.1 0 1.16.887 2.1 1.98 2.1s1.98-.94 1.98-2.1c0-1.16-.887-2.1-1.98-2.1zm-9.071-.26h4.65l-.046 1.445h-4.604z"/><path d="M38.817 13.964c1.575 0 2.899.54 3.805 1.477l-1.064 1.044c-.664-.666-1.607-1.03-2.695-1.03-2.174 0-3.936 1.728-3.936 3.86 0 2.133 1.762 3.861 3.936 3.861s3.717-1.233 3.714-3.86c.004-.163 0-.321-.011-.475h1.357l.001.054c.5 3.598-1.932 5.703-4.903 5.77l-.204.001c-3.013-.004-5.455-2.395-5.455-5.35 0-2.957 2.442-5.352 5.455-5.352z"/></g><g transform="translate(8.063 5.673)"><mask id="playstore-d" fill="#fff"><use xlink:href="#playstore-a"/></mask><use fill="url(#playstore-b)" transform="rotate(90 9.38 10.263)" xlink:href="#playstore-a"/><path fill="url(#playstore-c)" d="M0-.007l10.341 10.104L-.134 20.601z" mask="url(#playstore-d)"/><path fill="url(#playstore-e)" d="M-2.126-2.087L10.339 10.1l3.707-3.476z" mask="url(#playstore-d)"/><path fill="url(#playstore-f)" d="M10.341 10.098l5.674 5.622-16.95 5.623z" mask="url(#playstore-d)"/></g></g></svg><svg width="203" height="135" id="quotes" y="990"><path fill="#E2EAF5" d="M118.417 0v84.375h46.52L135.334 135h38.063L203 84.375V0h-84.583zM0 84.375h46.52L16.918 135H54.98l29.604-50.625V0H0v84.375z"/></svg><svg width="20" height="20" viewBox="0 0 45 45" id="virus-safety-green" y="1125"><g fill="none" fill-rule="evenodd"><g transform="translate(1.25 4.25)"><circle cx="21.25" cy="18.25" r="15" fill="#FFF" stroke="#313131" stroke-linecap="round" stroke-linejoin="round" stroke-width="1.25"/><path fill="#FFF" stroke="#313131" stroke-linecap="round" stroke-linejoin="round" stroke-width="1.25" d="M25 10.385l7.676-7.675m-16.95 14.089L3.844 4.917M18.75 28.851l-3.024 7.94M35.15 12.99l3.752-2.132m-7.751 19.085l5.099 5.314M7.612 24.832l-3.768 2.49"/><circle cx="25.625" cy="22.625" r="4.375" fill="#FFF" stroke="#313131" stroke-linecap="round" stroke-linejoin="round" stroke-width="1.25"/><circle cx="13.375" cy="22.875" r="2.125" fill="#FFF" stroke="#313131" stroke-linecap="round" stroke-linejoin="round" stroke-width="1.25"/><circle cx="2.125" cy="2.875" r="2.125" fill="#FFF" stroke="#313131" stroke-linecap="round" stroke-linejoin="round" stroke-width="1.25"/><circle cx="3.375" cy="27.375" r="2.125" fill="#FFF" stroke="#313131" stroke-linecap="round" stroke-linejoin="round" stroke-width="1.25"/><circle cx="15.375" cy="37.875" r="2.125" fill="#FFF" stroke="#313131" stroke-linecap="round" stroke-linejoin="round" stroke-width="1.25"/><circle cx="35.875" cy="35.375" r="2.125" fill="#FFF" stroke="#313131" stroke-linecap="round" stroke-linejoin="round" stroke-width="1.25"/><circle cx="18.375" cy="10.375" r="2.125" fill="#313131"/></g><g stroke="#313131" stroke-linecap="round" stroke-linejoin="round" stroke-width="1.25"><path fill="#4DDFD2" d="M33.704 2.5a.744.744 0 00-.462.197h0c-1.98 1.848-4.352 2.708-7.47 2.708h0c-.403 0-.73.313-.73.698h0c0 .495-.009 1.006-.02 1.546h0A83.73 83.73 0 0025 9.27h0v.191c.01 4.754.796 10.432 8.511 13h0a.724.724 0 00.239.038h0c.08 0 .161-.011.239-.038h0c7.545-2.511 8.465-7.998 8.511-12.687h0V8.94c-.005-.44-.012-.873-.021-1.291h0c-.01-.54-.02-1.051-.02-1.546h0c0-.385-.328-.698-.73-.698h0c-3.118 0-5.492-.86-7.473-2.708h0a.74.74 0 00-.46-.197h0-.092z"/><path d="M28.977 12.167l3.182 3 6.364-6"/></g></g></svg><svg width="64" height="64" viewBox="0 0 18 18" id="wfh-essentials" y="1145"><g fill="none" fill-rule="evenodd"><g stroke="#434A54" stroke-linecap="round" stroke-width=".4"><path d="M10.438 6.979H5.925V4.382a.26.26 0 01.26-.26h3.993a.26.26 0 01.26.26V6.98z"/><path d="M10.835 7.831H5.528V7.06c0-.08.072-.145.162-.145h4.984c.09 0 .161.065.161.145v.771h0z"/></g><path d="M5.075 13.594h-.571a.08.08 0 01-.082-.077V8.4h.734v5.117a.08.08 0 01-.081.077zM5.222 8.454h5.806v2.75H5.222zM11.028 8.705h3.36v2.445h-3.36z" stroke="#434A54" stroke-width=".4" stroke-linecap="round"/><path d="M12.867 10.08h-.317a.15.15 0 01-.147-.153.15.15 0 01.147-.152h.317a.15.15 0 01.147.152.15.15 0 01-.147.153z" fill="#434A54" fill-rule="nonzero"/><path d="M11.028 11.15h3.36v2.139a.306.306 0 01-.305.305h-2.75a.306.306 0 01-.305-.305v-2.14h0z" stroke="#434A54" stroke-width=".4" stroke-linecap="round"/><path d="M12.867 12.525h-.317a.15.15 0 01-.147-.153.15.15 0 01.147-.153h.317a.15.15 0 01.147.153.15.15 0 01-.147.153z" fill="#434A54" fill-rule="nonzero"/><path d="M14.876 8.694H4.109a.106.106 0 01-.106-.106v-.737c0-.058.047-.106.106-.106h10.767c.058 0 .105.048.105.106v.737a.106.106 0 01-.105.106z" stroke="#434A54" stroke-width=".4" fill="#4DDFD2"/></g></svg><svg xmlns="http://www.w3.org/2000/svg" width="64" height="64" viewBox="0 0 64 64" y="1200">
  <g>
    <rect x="9.95" y="10.85" width="12.57" height="43.29" style="fill: none;stroke: #434a54;stroke-linecap: round;stroke-linejoin: round;stroke-width: 1.4222222540113663px"/>
    <line x1="27.1" y1="53.38" x2="22.52" y2="54.14" style="fill: none;stroke: #434a54;stroke-linecap: round;stroke-linejoin: round;stroke-width: 1.4222222540113663px"/>
    <polyline points="38.41 48 38.41 51.52 33.55 52.32" style="fill: none;stroke: #434a54;stroke-linecap: round;stroke-linejoin: round;stroke-width: 1.4222222540113663px"/>
    <polyline points="22.52 10.85 38.41 15.22 38.41 36.47" style="fill: none;stroke: #434a54;stroke-linecap: round;stroke-linejoin: round;stroke-width: 1.4222222540113663px"/>
    <line x1="17.42" y1="17.89" x2="17.42" y2="47.08" style="fill: none;stroke: #4ddfd2;stroke-linecap: round;stroke-linejoin: round;stroke-width: 2px"/>
    <path d="M54.73,48.37C53,42.2,52.34,36.82,47.88,36.82H34.25c-4.47,0-5.14,5.38-6.85,11.55-1.46,5.27,2.34,6.82,4.52,5.13,1.5-1.16,3.58-5.5,3.58-5.5H46.63s2.07,4.34,3.57,5.5C52.39,55.19,56.19,53.64,54.73,48.37Z" style="fill: none;stroke: #434a54;stroke-linecap: round;stroke-linejoin: round;stroke-width: 1.4222222540113663px"/>
    <line x1="35.13" y1="40.43" x2="35.13" y2="44.12" style="fill: none;stroke: #4ddfd2;stroke-linecap: round;stroke-linejoin: round;stroke-width: 2px"/>
    <line x1="33.29" y1="42.28" x2="36.98" y2="42.28" style="fill: none;stroke: #4ddfd2;stroke-linecap: round;stroke-linejoin: round;stroke-width: 2px"/>
    <line x1="49.26" y1="42.65" x2="49.24" y2="42.65" style="fill: none;stroke: #434a54;stroke-linecap: round;stroke-linejoin: round;stroke-width: 2px"/>
    <line x1="44.86" y1="42.65" x2="44.84" y2="42.65" style="fill: none;stroke: #434a54;stroke-linecap: round;stroke-linejoin: round;stroke-width: 2px"/>
    <line x1="47.05" y1="40.43" x2="47.05" y2="40.46" style="fill: none;stroke: #434a54;stroke-linecap: round;stroke-linejoin: round;stroke-width: 2px"/>
    <line x1="47.05" y1="44.84" x2="47.05" y2="44.86" style="fill: none;stroke: #434a54;stroke-linecap: round;stroke-linejoin: round;stroke-width: 2px"/>
  </g>
</svg>
<svg xmlns="http://www.w3.org/2000/svg" width="64" height="64" viewBox="0 0 64 64" y="1270">
  <g>
    <path d="M37,17.1a4.46,4.46,0,0,1-8.91,0h0a4.46,4.46,0,0,1,8.91,0" style="fill: #4ddfd2;fill-rule: evenodd"/>
    <path d="M42.39,16.08l-4.12.81v-.16a5,5,0,0,0-.58-2.43h4.7ZM32.5,20.77a4,4,0,1,1,4-4A4,4,0,0,1,32.5,20.77Zm5.85,1.62a4.83,4.83,0,0,1,4.86,4.78v17a1.72,1.72,0,0,1-1.73,1.7h-4V43.44h1.64a.78.78,0,0,0,.83-.81V39.39a7.42,7.42,0,0,0-14.84,0v3.24a.78.78,0,0,0,.83.81h1.64v2.43h-4a1.72,1.72,0,0,1-1.73-1.7v-17a4.83,4.83,0,0,1,4.86-4.78ZM26.73,41.82V39.39a5.77,5.77,0,0,1,11.54,0v2.43Zm9.07,7.29a3.3,3.3,0,0,1-6.6,0V43.44h6.6ZM26.73,16.73v.15l-4.12-.8V14.3h4.7A6.15,6.15,0,0,0,26.73,16.73Zm14-4.05h-4.2a5.79,5.79,0,0,0-8.08,0H21.79a.77.77,0,0,0-.82.81v.81H16v1.61H21v.82a.81.81,0,0,0,.67.81l5.43,1.05a6.12,6.12,0,0,0,1.4,2.18H26.65a6.48,6.48,0,0,0-6.51,6.4v17a3.38,3.38,0,0,0,3.38,3.32h4v1.62a4.95,4.95,0,0,0,9.89,0V47.49h4a3.37,3.37,0,0,0,3.38-3.32v-17a6.46,6.46,0,0,0-6.51-6.4H36.54a5.26,5.26,0,0,0,1.4-2.18l5.44-1.05a.81.81,0,0,0,.66-.81v-.82H49V14.29H44v-.8a.77.77,0,0,0-.83-.81Z" style="fill: #434a54;fill-rule: evenodd"/>
  </g>
</svg>
</svg>
